<?xml version="1.0" standalone="no"?>
<!DOCTYPE svg PUBLIC "-//W3C//DTD SVG 20010904//EN"
 "http://www.w3.org/TR/2001/REC-SVG-20010904/DTD/svg10.dtd">
<svg version="1.0" xmlns="http://www.w3.org/2000/svg"
 width="7861.000000pt" height="1630.000000pt" viewBox="0 0 7861.000000 1630.000000"
 preserveAspectRatio="xMidYMid meet">
<metadata>
Created by potrace 1.16, written by Peter Selinger 2001-2019
</metadata>
<g transform="translate(0.000000,1630.000000) scale(0.100000,-0.100000)"
fill="#000000" stroke="none">
<path d="M1833 15229 c-188 -27 -408 -114 -540 -213 -193 -145 -331 -359 -391
-606 -40 -163 -44 -261 -36 -850 4 -305 8 -3248 9 -6540 l0 -5985 21 -90 c51
-214 124 -347 268 -490 158 -156 325 -241 551 -280 81 -14 3857 -15 37675 -13
36185 3 37588 4 37674 21 503 103 762 378 838 894 19 130 19 13105 0 13238
-84 582 -411 872 -1034 915 -184 13 -74947 11 -75035 -1z m75267 -347 c121
-38 207 -88 290 -172 85 -85 146 -193 177 -315 17 -67 18 -373 18 -6690 l0
-6620 -22 -85 c-78 -293 -268 -465 -583 -524 -75 -15 -3559 -16 -37579 -16
-33081 0 -37507 2 -37587 15 -175 28 -320 94 -419 191 -97 93 -156 208 -198
389 l-22 90 -3 6460 c-2 4466 0 6500 8 6591 12 149 36 248 86 347 97 194 253
311 469 352 58 11 6602 13 37680 12 l37610 -2 75 -23z"/>
<path d="M10700 10290 c-659 -68 -1228 -337 -1691 -799 -433 -434 -690 -946
-786 -1568 -25 -159 -25 -605 0 -763 81 -518 266 -948 579 -1343 97 -122 301
-327 418 -421 288 -230 646 -415 997 -514 l72 -20 3 1056 c3 971 5 1062 21
1117 26 91 90 214 142 273 86 97 243 191 385 229 89 24 290 24 380 -1 263 -72
439 -229 518 -461 l27 -80 3 -948 3 -949 73 70 c81 77 211 149 321 178 96 25
265 30 367 9 l87 -17 63 48 c95 73 310 286 403 399 345 420 554 913 616 1455
29 248 11 605 -42 865 -134 649 -509 1238 -1044 1641 -364 274 -796 455 -1255
525 -153 23 -517 34 -660 19z"/>
<path d="M26965 3963 c-271 -38 -525 -226 -646 -478 -64 -133 -74 -185 -74
-390 0 -161 2 -188 23 -255 91 -287 298 -488 590 -573 67 -19 100 -22 262 -22
157 0 198 4 272 22 144 37 257 96 356 186 l42 40 0 293 0 294 -145 0 -145 0 0
-230 0 -230 -32 -20 c-71 -43 -187 -72 -314 -77 -142 -6 -195 3 -304 55 -55
26 -94 54 -146 106 -122 122 -171 261 -161 451 9 162 57 274 163 380 129 129
305 186 509 165 114 -12 188 -37 276 -96 39 -25 72 -44 75 -41 27 27 144 205
142 217 -5 24 -149 115 -236 149 -44 17 -120 37 -167 46 -80 14 -266 18 -340
8z"/>
<path d="M32880 3956 c-161 -34 -299 -107 -417 -220 -128 -121 -201 -240 -244
-401 -18 -66 -22 -107 -22 -235 0 -185 17 -264 90 -410 40 -82 61 -109 148
-195 130 -129 224 -185 396 -232 99 -28 414 -24 524 5 109 30 246 99 328 167
l67 55 0 295 0 295 -145 0 -145 0 0 -229 0 -229 -37 -22 c-79 -47 -182 -72
-308 -78 -146 -6 -209 6 -313 58 -126 64 -227 176 -273 305 -16 44 -23 92 -26
180 -8 205 34 324 162 450 117 116 250 168 430 167 157 0 258 -30 368 -108 26
-19 50 -34 55 -34 8 1 145 198 150 215 3 12 -64 63 -133 103 -54 32 -125 60
-210 84 -93 26 -350 34 -445 14z"/>
<path d="M20390 3095 l0 -835 605 0 605 0 0 135 0 135 -460 0 -460 0 0 220 0
220 400 0 400 0 0 130 0 130 -400 0 -400 0 0 215 0 215 445 0 445 0 0 135 0
135 -590 0 -590 0 0 -835z"/>
<path d="M23150 3095 l0 -835 145 0 145 0 2 597 3 597 465 -597 465 -597 157
0 158 0 0 835 0 835 -145 0 -145 0 -2 -610 -3 -611 -475 610 -475 610 -147 1
-148 0 0 -835z"/>
<path d="M29473 3113 c-199 -450 -365 -826 -369 -836 -6 -16 4 -17 152 -15
l158 3 80 183 80 182 416 0 416 0 80 -182 80 -183 158 -3 c148 -2 158 -1 152
15 -4 10 -170 386 -368 836 l-361 817 -157 0 -156 0 -361 -817z m665 124 c78
-177 142 -326 142 -330 0 -4 -131 -7 -291 -7 -273 0 -291 1 -285 18 17 48 282
642 286 642 3 0 69 -145 148 -323z"/>
<path d="M35300 3095 l0 -835 610 0 610 0 0 135 0 135 -460 0 -460 0 0 220 0
220 400 0 400 0 0 130 0 130 -400 0 -400 0 0 215 0 215 445 0 445 0 0 135 0
135 -595 0 -595 0 0 -835z"/>
<path d="M40050 3105 c-201 -455 -367 -830 -368 -836 -3 -6 55 -8 154 -7 l159
3 80 182 80 183 416 0 416 0 80 -182 80 -183 157 -3 c86 -1 156 0 156 4 0 5
-658 1500 -723 1642 -10 21 -14 22 -166 22 l-156 0 -365 -825z m672 125 l146
-330 -295 0 c-277 0 -295 1 -289 18 21 55 282 641 286 642 3 0 71 -148 152
-330z"/>
<path d="M42880 3095 l0 -835 145 0 145 0 2 597 3 597 465 -597 465 -597 158
0 157 0 0 835 0 835 -145 0 -145 0 -2 -610 -3 -610 -475 610 -475 609 -147 1
-148 0 0 -835z"/>
<path d="M46070 3094 l0 -836 408 5 c444 4 477 8 642 73 229 90 379 266 442
521 32 126 32 360 0 486 -81 325 -323 523 -707 576 -42 6 -234 11 -431 11
l-354 0 0 -836z m833 538 c200 -55 328 -180 372 -363 20 -85 20 -267 0 -344
-37 -141 -121 -253 -233 -313 -117 -62 -182 -74 -444 -79 l-238 -5 0 567 0
567 233 -4 c195 -4 244 -8 310 -26z"/>
<path d="M50990 3095 l0 -835 605 0 605 0 0 135 0 135 -460 0 -460 0 0 220 0
220 400 0 400 0 0 130 0 130 -400 0 -400 0 0 215 0 215 445 0 445 0 0 135 0
135 -590 0 -590 0 0 -835z"/>
<path d="M53750 3095 l0 -835 145 0 145 0 2 594 3 594 463 -594 463 -594 159
0 160 0 0 835 0 835 -145 0 -145 0 -2 -613 -3 -613 -478 613 -479 613 -144 0
-144 0 0 -835z"/>
<path d="M56780 3795 l0 -135 255 0 255 0 0 -700 0 -700 145 0 145 0 0 700 0
700 255 0 255 0 0 135 0 135 -655 0 -655 0 0 -135z"/>
<path d="M59580 3095 l0 -835 605 0 605 0 0 135 0 135 -460 0 -460 0 0 220 0
220 400 0 400 0 0 130 0 130 -400 0 -400 0 0 215 0 215 445 0 445 0 0 135 0
135 -590 0 -590 0 0 -835z"/>
<path d="M62340 3095 l0 -835 145 0 145 0 0 280 0 280 178 0 178 0 199 -280
198 -280 189 0 188 0 -103 143 c-57 78 -152 209 -211 291 -59 81 -109 153
-112 160 -2 6 21 21 53 33 200 78 308 282 289 548 -16 243 -111 377 -314 445
-126 42 -232 50 -639 50 l-383 0 0 -835z m855 551 c135 -38 180 -101 180 -256
0 -114 -14 -158 -68 -217 -30 -33 -55 -48 -106 -64 -58 -20 -95 -23 -318 -27
l-253 -4 0 297 0 298 253 -6 c190 -4 267 -9 312 -21z"/>
<path d="M65090 3795 l0 -135 255 0 255 0 0 -700 0 -700 145 0 145 0 0 700 0
700 250 0 250 0 0 135 0 135 -650 0 -650 0 0 -135z"/>
<path d="M67895 3113 c-198 -448 -363 -824 -367 -834 -7 -18 1 -19 150 -19
l157 0 80 183 81 182 417 0 418 0 81 -182 80 -183 158 0 158 0 -118 268 c-65
147 -231 521 -368 832 l-250 565 -159 2 -158 3 -360 -817z m522 -211 c-159 -1
-292 -1 -294 1 -1 2 63 153 144 335 l147 332 146 -333 147 -332 -290 -3z"/>
<path d="M70720 3095 l0 -835 145 0 145 0 0 835 0 835 -145 0 -145 0 0 -835z"/>
<path d="M72660 3095 l0 -835 145 0 145 0 2 599 3 599 465 -598 465 -599 163
0 162 -1 0 835 0 835 -145 0 -145 0 -2 -615 -3 -614 -479 614 -480 615 -148 0
-148 0 0 -835z"/>
</g>
</svg>
