<svg id="Layer_1" data-name="Layer 1" xmlns="http://www.w3.org/2000/svg" viewBox="0 0 2000 2000"><defs><style>.cls-1{fill:#78648c;}</style></defs><title>Untitled-1</title><path class="cls-1" d="M1347.84,690.74C1331.71,564.19,1224.19,469.29,1090.7,469c-7.75.79-21.5,1.51-35,3.71-101.19,16.61-182.47,91.92-204.53,191.06-3.51,15.7-9,21.78-25.15,25.59C687.52,721.92,604.3,858.93,638.13,996.54c30.91,125.68,154,207.73,282.9,188.51a252,252,0,0,0,210.8-201.89c1.32-6.82,2.44-11.24,10.87-12.74C1273.93,947.09,1364.72,823.07,1347.84,690.74ZM889.78,1165c-131.31,2.49-236.13-99.32-236.46-228.74C653,804.71,754.77,721.1,844,709.3c-2.3,74.29,21.35,138.94,74,191.66s117.51,76.16,191.78,74C1098.09,1063.31,1015.36,1162.63,889.78,1165Zm158.78-217.85c-96.08-23.86-155.63-84.33-177.5-180.78-4-17.53-3-36.17-4.37-54.3-.43-5.65,2.21-6.88,7.51-7.07,119.15-4.42,220.83,80,237.35,197.78,2.19,15.68,2.2,31.66,3.28,48.2A177.79,177.79,0,0,1,1048.56,947.15Zm88,.78c1.69-74.93-22-139.59-74.93-192.24-52.71-52.4-117.09-76-191.21-73.39C884.26,585.52,975,490.11,1098.9,492c127.57,1.93,228.6,103.63,228.24,229.68C1326.77,850,1228.92,934.82,1136.55,947.93Z"/><path class="cls-1" d="M701.51,1324.22v26.86h-8.77q-88.79,0-177.57,0c-17.17,0-23.92,6.77-23.93,24.18q-.08,61.8,0,123.61v9.55c-8.11,0-15.3.3-22.45-.18-2.06-.13-4.34-2.14-5.89-3.85q-61.22-66.87-122.27-133.86c-1.82-2-3.68-3.94-5.52-5.9-.56.22-1.11.43-1.66.66v142.64H307.24V1324.37c8.33,0,16.95-.29,25.53.21,1.93.12,3.88,2.81,5.53,4.61q58,63.21,115.93,126.45a45.42,45.42,0,0,0,10.86,9.37c0-2.55,0-5.09,0-7.64.14-23.46-.34-47,.68-70.41a134.18,134.18,0,0,1,6.1-32.91c5.2-17.15,20.34-30.28,42.43-30,59.93.63,119.88.21,179.8.21Z"/><path class="cls-1" d="M1251.56,1461.63c-.53,27.55-20.47,46.58-48.16,46.78-29.72.22-59.43.16-89.15,0-24.69-.12-44.7-17.21-46.46-41.79-1.47-20.56-.3-41.31-.3-62.38h25.65c.15,2.54.44,5.17.44,7.77,0,15.49-.06,31,0,46.46s7.72,23.1,23,23.11q42.31.08,84.66,0c15.93,0,23.74-7.91,23.79-24.06q.09-41.21,0-82.42c0-16.64-7.6-24-24.38-24q-42.72,0-85.43,0c-10.91,0-16.71,3.8-20.25,14.12-1.29,3.74-2.89,5.23-6.82,5.08-6.66-.26-13.34-.08-19.91-.08-2.62-21.52,18.23-45.22,40.83-45.7q49.45-1,98.91,0c24.71.51,43,20.46,43.55,47.23Q1252.49,1416.65,1251.56,1461.63Z"/><path class="cls-1" d="M280.35,1462.19c-.56,26.67-20.46,45.87-47.23,46.19q-45.68.51-91.38,0c-23.58-.22-43.74-18.1-45.16-41.52-1.26-20.59-.27-41.32-.27-62.53H122.4v12.74c0,14.24-.18,28.48.06,42.7s8,21.77,22,21.8q43.44.11,86.9,0c13.8,0,22.33-8.07,22.42-21.57q.3-43.83,0-87.65c-.11-13.35-8.47-21.24-21.8-21.27q-44.21-.09-88.39,0c-10.39,0-16.51,4-19.73,13.82-1.36,4.15-3.15,5.56-7.31,5.38-6.43-.28-12.88-.07-19.67-.07-1.3-22.79,18.68-45.25,40.92-45.72,33.2-.69,66.44-.79,99.62,0,24.41.63,42.45,20.71,43,47Q281.25,1416.87,280.35,1462.19Z"/><polygon class="cls-1" points="701.78 1481.46 701.78 1508.2 518.43 1508.2 518.43 1404.38 674.45 1404.38 674.45 1430.63 545.17 1430.63 545.17 1481.46 701.78 1481.46"/><polygon class="cls-1" points="963.72 1324.67 963.72 1508.14 937.88 1508.14 937.88 1351.54 859.11 1351.54 859.11 1324.67 963.72 1324.67"/><path class="cls-1" d="M1806.4,1403.51v27.16h-25.54c-15.23,0-30.46.3-45.67-.15-6.46-.18-8.68,1.47-8.53,8.26.43,20.21.15,40.44.15,60.66V1508h-25.89V1324.47h25.53v79Z"/><path class="cls-1" d="M1630,1508.36c-31.47.39-63,.45-94.41,0-27.19-.4-46.24-20.31-46.38-47.53-.09-18.23.08-36.45.15-54.68a8.23,8.23,0,0,1,.77-2H1516v17.24c0,13.47-.17,27,.07,40.46.21,11.88,8.07,19.84,19.79,19.89q45.7.22,91.42,0c10.9,0,16.25-5.12,20.62-19.09h24.75C1675,1485.11,1653.61,1508.08,1630,1508.36Z"/><path class="cls-1" d="M1356.1,1481.76v26.45c-12.18,0-24,1.16-35.49-.27-17.62-2.17-29.49-14.7-41.33-26.56-1-1-1.24-3.22-1.24-4.87q0-74.85.1-149.72a9.53,9.53,0,0,1,.59-2h26v8.52q0,62.13,0,124.27c0,16.07,7.61,23.83,23.7,24.12C1337.41,1481.88,1346.39,1481.76,1356.1,1481.76Z"/><path class="cls-1" d="M1462.51,1458.94c-.07,30.24-19.48,49.39-49.78,49.51-9.17,0-18.34,0-28,0v-26.71c10.5,0,20.22.07,29.93,0,12.49-.1,20.1-7.06,21.14-19.49.4-4.94.22-10,.22-15q0-56.13,0-112.28v-10.2h26c.18,2.41.51,5,.51,7.63C1462.56,1374.61,1462.65,1416.78,1462.51,1458.94Z"/><path class="cls-1" d="M1672.76,1370.17c-7.33,0-14.75.23-22.13-.18-1.45-.07-3.43-2.29-4.06-4-4.11-10.8-9.74-14.93-21.44-15q-41.55-.06-83.13,0c-17.12,0-21.52,3-27.07,18.84h-25.24c0-2.64-.35-5.05.06-7.33,4-22.32,22.35-38.12,45.15-38.27,31.94-.22,63.91-.36,95.86.12C1654,1324.8,1674,1346.66,1672.76,1370.17Z"/><rect class="cls-1" x="1858.43" y="1324.85" width="25.63" height="183.29"/><rect class="cls-1" x="992.23" y="1324.88" width="50.4" height="25.89"/><path class="cls-1" d="M544.51,1377.35c.06,7.17-6.13,13.07-13.57,12.94a12.85,12.85,0,0,1-13-13.39,13.14,13.14,0,0,1,12.92-12.78C538,1364.12,544.45,1370.44,544.51,1377.35Z"/><path class="cls-1" d="M1076.58,1001.39c-15.61,58.74-85.86,141.89-200.82,138.08-101.94-3.39-184.38-80.57-195.61-181.84-11.63-105.07,57-191.46,137.45-215.91C840.09,892.13,926.8,977.82,1076.58,1001.39Z"/><path class="cls-1" d="M1040.14,803.06c-18,5.65-34.73,10.9-51.49,16.2-18.06,5.71-36.13,11.37-54.11,17.29-4.52,1.48-7.35.93-9.66-3.54-2.82-5.49-6.26-10.64-9.91-16.7,8.82-2.77,16.85-5.31,24.89-7.85,24.92-7.9,49.88-15.71,74.77-23.78,4.27-1.39,7.34-1.24,10.44,2.43C1029.52,792.39,1034.53,797.18,1040.14,803.06Z"/><path class="cls-1" d="M1067.15,844.06c-3.34,1.24-6,2.33-8.68,3.19-29.2,9.22-58.47,18.23-87.58,27.73-5.78,1.87-9.57,1.08-13.69-3.28s-9.41-8.11-14.18-12.11c.45-.89.9-1.76,1.33-2.64,36.56-11.54,73.12-23.09,110.24-34.79Z"/><path class="cls-1" d="M998.21,766.35l-92.54,29.17L898,771.72c17.58-5.56,35.1-9.3,51-16.57C968.85,746.05,983.18,753.83,998.21,766.35Z"/><path class="cls-1" d="M1083.46,888.92c-4,1.35-7.36,2.59-10.83,3.7-16.8,5.37-33.56,10.91-50.48,15.88a17.45,17.45,0,0,1-11.11-.83c-8.24-3.67-16.07-8.3-26-13.61l91.3-28.79C1078.8,873.53,1081,880.86,1083.46,888.92Z"/><path class="cls-1" d="M931.12,737.48,893.7,749.37c-.56-6.51-1-12-1.72-19.7,13.76,1.9,26.4,3.64,39,5.4C931,735.88,931.07,736.69,931.12,737.48Z"/><path class="cls-1" d="M1088.61,927.49l-31.5-4.24c0-.62-.09-1.22-.15-1.83l30.08-9.63Z"/></svg>