<svg width="540" height="308" viewBox="0 0 540 308" fill="none" xmlns="http://www.w3.org/2000/svg">
<path fill-rule="evenodd" clip-rule="evenodd" d="M152.311 263.082C130.565 205.75 140.175 165.267 181.142 141.633C242.593 106.182 238.515 139.641 267.053 87.7407C295.591 35.8406 423.185 9.78585 453.21 103.881C473.227 166.612 458.476 219.678 408.958 263.082H152.311Z" fill="white"/>
<path fill-rule="evenodd" clip-rule="evenodd" d="M492.177 266.08C499.633 245.988 497.199 227.773 484.875 211.436C477.325 221.336 473.824 233.102 474.372 246.735C474.658 253.851 475.8 260.299 477.797 266.08H492.177Z" fill="#3682EB"/>
<path fill-rule="evenodd" clip-rule="evenodd" d="M492.177 266.08C499.633 245.988 497.199 227.773 484.875 211.436C484.853 211.465 484.83 211.494 484.808 211.523C487.382 231.751 488.153 249.937 487.124 266.08H492.177Z" fill="#124D95"/>
<path fill-rule="evenodd" clip-rule="evenodd" d="M474.876 266.08C472.882 256.08 467.356 248.354 458.296 242.902C456.226 250.492 456.938 258.218 460.432 266.08H474.876L474.876 266.08Z" fill="#458EF1"/>
<path fill-rule="evenodd" clip-rule="evenodd" d="M469.005 266.079H474.876C472.889 256.112 467.392 248.404 458.385 242.955C462.613 251.427 466.153 259.135 469.005 266.079Z" fill="#124D95"/>
<path fill-rule="evenodd" clip-rule="evenodd" d="M506.585 266.08C507.277 260.736 506.859 255.171 505.328 249.387C498.759 253.32 493.713 258.884 490.191 266.08H506.585Z" fill="#458EF1"/>
<path fill-rule="evenodd" clip-rule="evenodd" d="M500.405 266.08H506.585C507.277 260.736 506.859 255.171 505.328 249.387C505.273 249.42 505.218 249.453 505.163 249.486C503.666 255.386 502.08 260.917 500.405 266.08Z" fill="#124D95"/>
<path fill-rule="evenodd" clip-rule="evenodd" d="M56.1649 265.645C52.6474 248.899 56.8232 235.874 68.6924 226.57C71.7004 233.934 71.9092 241.783 69.3187 250.116C67.3415 256.477 64.4742 261.653 60.717 265.645H56.1649Z" fill="#162C58"/>
<path fill-rule="evenodd" clip-rule="evenodd" d="M42.5801 265.644C35.124 245.553 37.558 227.338 49.882 211C57.4314 220.9 60.9323 232.667 60.3847 246.299C60.0988 253.415 58.957 259.864 56.9591 265.644H42.5801Z" fill="#3682EB"/>
<path fill-rule="evenodd" clip-rule="evenodd" d="M49.882 211C49.9041 211.029 49.9261 211.058 49.9482 211.087C47.3749 231.315 46.6031 249.501 47.6329 265.644H42.5801C35.124 245.553 37.558 227.338 49.882 211Z" fill="#124D95"/>
<path fill-rule="evenodd" clip-rule="evenodd" d="M59.8806 265.645C61.8744 255.645 67.4009 247.919 76.4602 242.467C78.5301 250.056 77.8181 257.782 74.3243 265.645H59.8806L59.8806 265.645Z" fill="#458EF1"/>
<path fill-rule="evenodd" clip-rule="evenodd" d="M59.8806 265.644C61.8679 255.677 67.3647 247.969 76.3713 242.52C72.1441 250.992 68.6041 258.7 65.7513 265.644H59.8806Z" fill="#124D95"/>
<path fill-rule="evenodd" clip-rule="evenodd" d="M28.1721 265.644C27.4791 260.3 27.8979 254.736 29.4284 248.951C35.9978 252.884 41.0436 258.449 44.5657 265.644H28.1721Z" fill="#458EF1"/>
<path fill-rule="evenodd" clip-rule="evenodd" d="M34.3516 265.644H28.1721C27.4791 260.3 27.8979 254.736 29.4284 248.951C29.4836 248.984 29.5387 249.017 29.5937 249.051C31.0908 254.95 32.6767 260.481 34.3516 265.644Z" fill="#124D95"/>
<path fill-rule="evenodd" clip-rule="evenodd" d="M79.6262 265.825C79.6262 265.825 93.3282 238.129 114.865 246.931C136.402 255.732 140.837 234.298 140.837 234.298C140.837 234.298 142.722 226.626 145.159 224.201C156.295 213.12 172.277 215.3 187.748 228.6C187.748 228.6 204.35 242.413 206.68 265.825H79.6262Z" fill="#1A9A6C"/>
<path fill-rule="evenodd" clip-rule="evenodd" d="M126.618 265.753C126.618 265.753 138.304 242.546 151.991 250.655C165.678 258.763 169.683 247.238 169.683 247.238C169.683 247.238 172.006 241.932 174.282 240.41C181.553 235.549 190.856 237.019 197.564 243.683C210.777 256.808 215.817 265.825 215.817 265.825L126.618 265.753Z" fill="#29C98F"/>
<path fill-rule="evenodd" clip-rule="evenodd" d="M452.518 265.824H325.464C326.171 258.741 335.422 238.241 349.831 231.015C367.097 222.356 382.542 238.633 385.633 242.955C395.63 256.93 402.921 252.829 417.279 246.976C431.637 241.122 443.383 247.405 452.518 265.824Z" fill="#089B6B"/>
<path fill-rule="evenodd" clip-rule="evenodd" d="M308.931 265.752C308.931 265.752 319.148 248.137 332.835 256.245C346.522 264.354 346.257 254.139 356.329 242.906C360.971 237.73 373.169 237.017 379.877 243.681C393.09 256.806 398.129 265.824 398.129 265.824L308.931 265.752Z" fill="#16CA8E"/>
<path d="M0 267.999H539.106V265.389H0V267.999Z" fill="#031949"/>
<path d="M144.505 150.011C146.994 150.011 149.011 147.994 149.011 145.505C149.011 143.017 146.994 141 144.505 141C142.017 141 140 143.017 140 145.505C140 147.994 142.017 150.011 144.505 150.011Z" fill="#00C1B9"/>
<path d="M279.076 45.1525C281.328 45.1525 283.153 43.3275 283.153 41.0763C283.153 38.825 281.328 37 279.076 37C276.825 37 275 38.825 275 41.0763C275 43.3275 276.825 45.1525 279.076 45.1525Z" fill="#344563"/>
<path d="M391.076 63.1525C393.328 63.1525 395.153 61.3275 395.153 59.0763C395.153 56.825 393.328 55 391.076 55C388.825 55 387 56.825 387 59.0763C387 61.3275 388.825 63.1525 391.076 63.1525Z" fill="#00C1B9"/>
<path d="M367.076 8.15252C369.328 8.15252 371.153 6.32752 371.153 4.07626C371.153 1.825 369.328 0 367.076 0C364.825 0 363 1.825 363 4.07626C363 6.32752 364.825 8.15252 367.076 8.15252Z" fill="#FF6875"/>
<mask id="mask0" mask-type="alpha" maskUnits="userSpaceOnUse" x="325" y="57" width="30" height="30">
<path d="M339.754 86.5087C347.903 86.5087 354.509 79.9029 354.509 71.7543C354.509 63.6057 347.903 57 339.754 57C331.606 57 325 63.6057 325 71.7543C325 79.9029 331.606 86.5087 339.754 86.5087Z" fill="white"/>
</mask>
<g mask="url(#mask0)">
<path d="M339.754 86.5087C347.903 86.5087 354.509 79.9029 354.509 71.7543C354.509 63.6057 347.903 57 339.754 57C331.606 57 325 63.6057 325 71.7543C325 79.9029 331.606 86.5087 339.754 86.5087Z" fill="#FF6875"/>
<path opacity="0.3" fill-rule="evenodd" clip-rule="evenodd" d="M327.961 58.3276C326.853 65.334 330.13 69.3235 337.79 70.296C349.28 71.7548 354.846 70.5585 354.509 86.5091C354.172 102.46 321.876 90.0435 321.876 71.7548C321.876 59.5623 323.904 55.0865 327.961 58.3276Z" fill="white"/>
</g>
<mask id="mask1" mask-type="alpha" maskUnits="userSpaceOnUse" x="193" y="66" width="62" height="62">
<path d="M223.889 127.777C240.948 127.777 254.777 113.948 254.777 96.8887C254.777 79.8293 240.948 66 223.889 66C206.829 66 193 79.8293 193 96.8887C193 113.948 206.829 127.777 223.889 127.777Z" fill="white"/>
</mask>
<g mask="url(#mask1)">
<path d="M223.889 127.777C240.948 127.777 254.777 113.948 254.777 96.8887C254.777 79.8293 240.948 66 223.889 66C206.829 66 193 79.8293 193 96.8887C193 113.948 206.829 127.777 223.889 127.777Z" fill="#00C1B9"/>
<path opacity="0.5" d="M194.479 78.3788C202.137 117.722 209.772 136.145 217.383 133.645C228.8 129.897 187.401 67.0802 201.784 65.9992C216.166 64.9183 221.896 148.541 237.777 145.692C253.657 142.843 198.957 57.2834 214.361 58.4427C229.765 59.6019 240.208 133.645 252.114 133.645C264.019 133.645 216.798 59.519 233.2 54.1604C249.601 48.8018 243.52 101.719 269.481 120.021C286.789 132.222 294.224 126.876 291.788 103.983" stroke="white" stroke-width="1.23555"/>
</g>
<path d="M300.434 107H220.681C218.648 107 217 108.648 217 110.681V132.153C217 134.186 218.648 135.834 220.681 135.834H300.434C302.467 135.834 304.115 134.186 304.115 132.153V110.681C304.115 108.648 302.467 107 300.434 107Z" fill="#344563"/>
<path d="M237.552 129.699C242.126 129.699 245.834 125.991 245.834 121.417C245.834 116.843 242.126 113.135 237.552 113.135C232.978 113.135 229.27 116.843 229.27 121.417C229.27 125.991 232.978 129.699 237.552 129.699Z" fill="white"/>
<path d="M251.969 115.896H296.139" stroke="white" stroke-width="0.613486"/>
<path d="M251.969 122.031H296.139" stroke="white" stroke-width="0.613486"/>
<path d="M251.969 128.166H296.139" stroke="white" stroke-width="0.613486"/>
<path d="M395.434 107H315.681C313.648 107 312 108.648 312 110.681V132.153C312 134.186 313.648 135.834 315.681 135.834H395.434C397.467 135.834 399.115 134.186 399.115 132.153V110.681C399.115 108.648 397.467 107 395.434 107Z" fill="#344563"/>
<path d="M332.695 113.148C331.057 113.148 329.456 113.634 328.094 114.544C326.733 115.454 325.672 116.747 325.045 118.26C324.418 119.773 324.254 121.438 324.574 123.044C324.893 124.65 325.682 126.125 326.84 127.283C327.998 128.441 329.473 129.23 331.079 129.549C332.685 129.869 334.35 129.705 335.863 129.078C337.376 128.451 338.669 127.39 339.579 126.029C340.489 124.667 340.975 123.066 340.975 121.428C340.972 119.233 340.099 117.129 338.547 115.576C336.994 114.024 334.89 113.151 332.695 113.148ZM337.474 118.806L332.751 125.216C332.695 125.29 332.625 125.352 332.545 125.399C332.465 125.445 332.377 125.476 332.285 125.488C332.193 125.5 332.1 125.493 332.01 125.469C331.921 125.445 331.837 125.403 331.764 125.346L328.392 122.649C328.321 122.592 328.262 122.522 328.218 122.443C328.175 122.364 328.147 122.276 328.137 122.186C328.117 122.004 328.17 121.822 328.284 121.679C328.398 121.536 328.565 121.444 328.747 121.424C328.929 121.404 329.111 121.457 329.254 121.571L332.067 123.821L336.363 117.99C336.415 117.913 336.482 117.846 336.56 117.795C336.638 117.744 336.726 117.71 336.818 117.693C336.909 117.677 337.004 117.68 337.094 117.701C337.185 117.722 337.271 117.762 337.346 117.817C337.421 117.872 337.484 117.942 337.532 118.022C337.579 118.103 337.61 118.192 337.622 118.284C337.634 118.377 337.627 118.471 337.601 118.56C337.576 118.65 337.533 118.734 337.474 118.806Z" fill="white"/>
<path d="M346.969 115.896H391.14" stroke="white" stroke-width="0.613486"/>
<path d="M346.969 122.031H391.14" stroke="white" stroke-width="0.613486"/>
<path d="M346.969 128.166H391.14" stroke="white" stroke-width="0.613486"/>
<path d="M300.434 141.834H220.681C218.648 141.834 217 143.482 217 145.515V166.987C217 169.02 218.648 170.668 220.681 170.668H300.434C302.467 170.668 304.115 169.02 304.115 166.987V145.515C304.115 143.482 302.467 141.834 300.434 141.834Z" fill="#344563"/>
<path d="M237.552 164.533C242.126 164.533 245.834 160.825 245.834 156.251C245.834 151.677 242.126 147.969 237.552 147.969C232.978 147.969 229.27 151.677 229.27 156.251C229.27 160.825 232.978 164.533 237.552 164.533Z" fill="white"/>
<path d="M251.969 150.73H296.139" stroke="white" stroke-width="0.613486"/>
<path d="M251.969 156.865H296.139" stroke="white" stroke-width="0.613486"/>
<path d="M251.969 163H296.139" stroke="white" stroke-width="0.613486"/>
<path d="M350.969 186.896H395.14" stroke="white" stroke-width="0.613486"/>
<path d="M350.969 193.031H395.14" stroke="white" stroke-width="0.613486"/>
<path d="M350.969 199.166H395.14" stroke="white" stroke-width="0.613486"/>
<path d="M300.434 211.502H220.681C218.648 211.502 217 213.15 217 215.183V236.655C217 238.688 218.648 240.336 220.681 240.336H300.434C302.467 240.336 304.115 238.688 304.115 236.655V215.183C304.115 213.15 302.467 211.502 300.434 211.502Z" fill="#FF6875"/>
<path d="M237.552 234.201C242.126 234.201 245.834 230.493 245.834 225.919C245.834 221.345 242.126 217.637 237.552 217.637C232.978 217.637 229.27 221.345 229.27 225.919C229.27 230.493 232.978 234.201 237.552 234.201Z" fill="white"/>
<path d="M251.969 220.398H296.14" stroke="white" stroke-width="0.613486"/>
<path d="M251.969 226.533H296.14" stroke="white" stroke-width="0.613486"/>
<path d="M251.969 232.668H296.14" stroke="white" stroke-width="0.613486"/>
<path d="M300.434 176.668H220.681C218.648 176.668 217 178.316 217 180.349V201.821C217 203.854 218.648 205.502 220.681 205.502H300.434C302.467 205.502 304.115 203.854 304.115 201.821V180.349C304.115 178.316 302.467 176.668 300.434 176.668Z" fill="#00C1B9"/>
<path d="M237.28 182.668C235.642 182.668 234.042 183.154 232.68 184.063C231.318 184.973 230.257 186.266 229.63 187.779C229.004 189.292 228.84 190.957 229.159 192.563C229.479 194.169 230.267 195.645 231.425 196.803C232.583 197.961 234.058 198.749 235.665 199.069C237.271 199.388 238.936 199.224 240.449 198.598C241.962 197.971 243.255 196.91 244.165 195.548C245.074 194.186 245.56 192.586 245.56 190.948C245.557 188.753 244.684 186.648 243.132 185.096C241.58 183.544 239.475 182.671 237.28 182.668V182.668ZM242.06 188.326L237.337 194.735C237.281 194.809 237.211 194.871 237.131 194.918C237.051 194.965 236.962 194.995 236.87 195.007C236.779 195.019 236.685 195.013 236.596 194.988C236.506 194.964 236.423 194.922 236.35 194.865L232.977 192.169C232.906 192.112 232.847 192.042 232.804 191.963C232.76 191.883 232.732 191.796 232.722 191.706C232.702 191.524 232.755 191.341 232.87 191.198C232.984 191.056 233.15 190.964 233.332 190.944C233.514 190.924 233.697 190.976 233.84 191.091L236.652 193.341L240.949 187.51C241 187.432 241.067 187.366 241.145 187.315C241.224 187.264 241.311 187.229 241.403 187.213C241.495 187.197 241.589 187.199 241.68 187.22C241.771 187.242 241.856 187.281 241.931 187.336C242.007 187.392 242.07 187.461 242.117 187.542C242.165 187.622 242.195 187.711 242.207 187.804C242.219 187.896 242.212 187.99 242.187 188.08C242.162 188.17 242.118 188.253 242.06 188.326Z" fill="white"/>
<path d="M251.969 185.564H296.139" stroke="white" stroke-width="0.613486"/>
<path d="M251.969 191.699H296.139" stroke="white" stroke-width="0.613486"/>
<path d="M251.969 197.834H296.139" stroke="white" stroke-width="0.613486"/>
<path d="M395.434 176.668H315.681C313.648 176.668 312 178.316 312 180.349V201.821C312 203.854 313.648 205.502 315.681 205.502H395.434C397.467 205.502 399.115 203.854 399.115 201.821V180.349C399.115 178.316 397.467 176.668 395.434 176.668Z" fill="#00C1B9"/>
<path d="M332.28 182.668C330.642 182.668 329.042 183.154 327.68 184.063C326.318 184.973 325.257 186.266 324.63 187.779C324.004 189.292 323.84 190.957 324.159 192.563C324.479 194.169 325.267 195.645 326.425 196.803C327.583 197.961 329.058 198.749 330.665 199.069C332.271 199.388 333.936 199.224 335.449 198.598C336.962 197.971 338.255 196.91 339.165 195.548C340.074 194.186 340.56 192.586 340.56 190.948C340.557 188.753 339.684 186.648 338.132 185.096C336.58 183.544 334.475 182.671 332.28 182.668V182.668ZM337.06 188.326L332.337 194.735C332.281 194.809 332.211 194.871 332.131 194.918C332.051 194.965 331.962 194.995 331.87 195.007C331.779 195.019 331.685 195.013 331.596 194.988C331.506 194.964 331.423 194.922 331.35 194.865L327.977 192.169C327.906 192.112 327.847 192.042 327.804 191.963C327.76 191.883 327.732 191.796 327.722 191.706C327.702 191.524 327.755 191.341 327.87 191.198C327.984 191.056 328.15 190.964 328.332 190.944C328.514 190.924 328.697 190.976 328.84 191.091L331.652 193.341L335.949 187.51C336 187.432 336.067 187.366 336.145 187.315C336.224 187.264 336.311 187.229 336.403 187.213C336.495 187.197 336.589 187.199 336.68 187.22C336.771 187.242 336.856 187.281 336.931 187.336C337.007 187.392 337.07 187.461 337.117 187.542C337.165 187.622 337.195 187.711 337.207 187.804C337.219 187.896 337.212 187.99 337.187 188.08C337.162 188.17 337.118 188.253 337.06 188.326Z" fill="white"/>
<path d="M346.969 185.564H391.139" stroke="white" stroke-width="0.613486"/>
<path d="M346.969 191.699H391.139" stroke="white" stroke-width="0.613486"/>
<path d="M346.969 197.834H391.139" stroke="white" stroke-width="0.613486"/>
<path fill-rule="evenodd" clip-rule="evenodd" d="M216.024 130.871L215.446 127.293L217.918 124.383L223.049 125.838C222.494 127.193 221.111 127.723 218.902 127.427C218.687 127.884 218.5 128.241 218.342 128.496L220.218 135.449L203.305 156.667L195.401 159.921L192.584 150.987L199.997 147.291L216.024 130.871Z" fill="#FE8B78"/>
<path fill-rule="evenodd" clip-rule="evenodd" d="M198.229 148.037C198.229 148.037 202.973 154.12 205.101 154.421L203.292 156.662L200.665 157.76C200.665 157.76 200.351 154.713 199.942 153.079C199.532 151.444 198.229 148.037 198.229 148.037Z" fill="#DF705E"/>
<path fill-rule="evenodd" clip-rule="evenodd" d="M198.229 148.037C198.229 148.037 199.905 152.15 200.362 154.603C200.819 157.055 200.662 161.098 200.662 161.098L195.159 163.244L190.102 150.381C190.102 150.381 192.471 150.235 193.924 149.777C195.378 149.319 198.229 148.037 198.229 148.037Z" fill="#2B3952"/>
<path fill-rule="evenodd" clip-rule="evenodd" d="M144.34 288.393L140.511 292.176C146.31 299.843 149.474 304.732 150.002 306.842C150.53 308.952 143.529 303.301 129 289.887L137.52 281.992L144.34 288.393Z" fill="#00246B"/>
<path fill-rule="evenodd" clip-rule="evenodd" d="M136.042 282.895L148.219 294.36C148.219 294.36 183.724 263.829 189.772 225.434L167.709 201.092C167.709 201.092 161.517 237.027 155.733 251.968C149.949 266.909 136.042 282.895 136.042 282.895Z" fill="#4D9DD8"/>
<path fill-rule="evenodd" clip-rule="evenodd" d="M164.764 217.112C165.131 215.254 165.498 213.339 165.867 211.368L173.505 207.486L179.163 213.728L188.521 231.949C187.47 236.574 186.087 241.111 184.372 245.559C181.008 236.486 174.472 227.004 164.764 217.112L164.764 217.112Z" fill="#3788C6"/>
<path fill-rule="evenodd" clip-rule="evenodd" d="M190.797 150.309C190.797 150.309 189.918 143.566 192.362 142.258C192.362 142.258 196.522 140.691 194.891 134.436L195.846 132.701C195.846 132.701 194.068 130.796 192.952 129.452C191.836 128.107 189.784 125.396 189.784 125.396L179.626 137L182.037 152.769L190.797 150.309Z" fill="#FE8B78"/>
<path fill-rule="evenodd" clip-rule="evenodd" d="M190.789 150.311C189.712 148.336 188.962 145.403 188.54 141.514C189.055 142.165 190.275 142.444 192.203 142.351C190.699 143.31 190.23 145.963 190.797 150.309L190.789 150.311Z" fill="#DF705E"/>
<path fill-rule="evenodd" clip-rule="evenodd" d="M192.241 123.109C192.241 123.109 177.138 122.048 174.255 131.319C174.255 131.319 171.944 141.68 181.118 146.401C181.118 146.401 188.007 144.875 188.143 142.596L187.685 139.221C187.685 139.221 186.252 138.668 185.815 138.321C184.273 137.096 185.216 134.7 187.161 135.093C187.161 135.093 187.731 135.255 187.946 135.367C188.545 135.679 188.821 135.958 188.821 135.958L189.55 134.889C189.55 134.889 185.516 130.331 192.703 126.937C199.89 123.543 192.241 123.109 192.241 123.109Z" fill="#352C24"/>
<path fill-rule="evenodd" clip-rule="evenodd" d="M174.058 265.298L194.383 244.651C189.276 237.592 185.451 232.858 182.908 230.45C179.093 226.839 174.734 222.235 173.063 219.958C169.517 215.129 167.788 211.326 167.876 208.549H196.932L215.91 241.69C218.376 245.997 217.362 251.457 213.512 254.59L183.753 278.815L174.058 265.298Z" fill="#5FB2EF"/>
<path d="M178.252 270.683L205.683 245.911C206.83 244.876 207.077 243.17 206.27 241.853L186.557 209.646L185.692 210.176L205.405 242.382C205.957 243.284 205.789 244.45 205.004 245.159L177.573 269.931L178.252 270.683Z" fill="#98D3FF"/>
<path opacity="0.65" fill-rule="evenodd" clip-rule="evenodd" d="M170.501 216.126C168.767 213.203 167.891 210.766 167.873 208.812H181.46L197.154 209.647L199.872 213.685L202.71 218.64C200.209 219.103 196.632 219.074 191.978 218.551C189.332 218.254 184.892 215.643 180.834 214.947C178.757 214.591 175.312 214.984 170.501 216.126Z" fill="#3C89C4"/>
<path fill-rule="evenodd" clip-rule="evenodd" d="M192.159 151.781L191.918 151.488C191.109 150.521 190.795 150.308 190.73 150.305L190.445 150.343C189.926 150.407 188.753 150.532 187.543 150.528C185.01 150.522 181.904 149.439 181.574 149.347C181.042 149.199 170.072 160.158 167.617 180.915C166.112 193.64 163.004 202.896 158.291 208.685L158.14 208.868C157.395 209.766 157.518 211.097 158.416 211.843C158.643 212.032 158.908 212.171 159.193 212.251C160.821 212.709 163.337 212.97 166.744 213.033C169.961 213.093 174.117 209.832 178.822 209.539C181.226 209.389 185.396 210.414 190.197 210.872L190.48 210.899C192.169 211.051 194.829 211.051 198.459 210.899C199.529 177.975 197.429 158.269 192.159 151.781Z" fill="#344563"/>
<path fill-rule="evenodd" clip-rule="evenodd" d="M192.805 152.667V156.823H194.788C194.905 157.15 195.019 157.488 195.131 157.837H192.805V163.244H196.487C196.552 163.576 196.616 163.914 196.679 164.257H192.805V169.833H197.198V167.477C197.625 170.475 197.963 173.846 198.212 177.59V182.506H198.478C198.492 182.841 198.506 183.179 198.519 183.519H198.212V188.588H198.665C198.672 188.924 198.678 189.262 198.684 189.602L198.212 189.602V194.671H198.729C198.73 195.007 198.73 195.345 198.73 195.685H198.212V200.078H198.702C198.698 200.414 198.694 200.752 198.689 201.092H198.212V206.499H198.585C198.577 206.835 198.568 207.173 198.559 207.512H198.212V210.909C197.865 210.923 197.527 210.936 197.198 210.947V207.512H192.805V211.006C192.446 211.001 192.108 210.992 191.791 210.98V207.512H186.722V210.448C186.379 210.399 186.04 210.349 185.708 210.299V207.512H180.64V209.591C180.281 209.559 179.942 209.537 179.626 209.528V207.512H174.557V210.501C174.215 210.623 173.877 210.751 173.543 210.882V207.512H167.798V212.948C167.451 213.007 167.113 213.037 166.784 213.034V207.512H159.19C159.427 207.184 159.659 206.846 159.888 206.499H166.784V201.092H162.754C162.897 200.759 163.037 200.421 163.175 200.078H166.784V195.685H164.703C164.804 195.351 164.902 195.013 164.999 194.671H166.784V189.602H166.231C166.3 189.267 166.368 188.929 166.435 188.588H166.784V186.683C167.102 184.847 167.38 182.924 167.617 180.915C167.673 180.442 167.734 179.974 167.798 179.511V182.506H173.543V177.437H168.121C168.179 177.096 168.24 176.758 168.303 176.423H173.543V170.847H169.609C169.705 170.505 169.804 170.167 169.904 169.833L173.543 169.833V164.257H171.88C172.021 163.914 172.163 163.576 172.307 163.244H173.543V160.58C173.88 159.901 174.218 159.253 174.557 158.634V163.244H179.626V157.837H175.002C175.201 157.488 175.399 157.15 175.595 156.823H179.626V151.17C180.011 150.726 180.353 150.363 180.64 150.08V156.823H185.708V150.373C186.045 150.424 186.386 150.466 186.722 150.493V156.823H191.791V151.339C191.903 151.47 192.025 151.617 192.159 151.781C192.38 152.053 192.595 152.348 192.805 152.667ZM180.64 157.837V163.244H185.708V157.837H180.64ZM186.722 157.837V163.244H191.791V157.837H186.722ZM191.791 164.257H186.722V169.833H191.791V164.257ZM185.708 164.257H180.64V169.833H185.708V164.257ZM179.626 164.257H174.557V169.833H179.626V164.257ZM197.198 201.092H192.805V206.499H197.198V201.092ZM197.198 200.078V195.685H192.805V200.078H197.198ZM197.198 194.671V189.602H192.805V194.671H197.198ZM197.198 188.588V183.519H192.805V188.588H197.198ZM197.198 182.506V177.437H192.805V182.506H197.198ZM197.198 176.423V170.847H192.805V176.423H197.198ZM191.791 206.499V201.092H186.722V206.499H191.791ZM185.708 206.499V201.092H180.64V206.499H185.708ZM179.626 206.499V201.092H174.557V206.499H179.626ZM173.543 206.499V201.092H167.798V206.499H173.543ZM167.798 200.078H173.543V195.685H167.798V200.078ZM174.557 200.078H179.626V195.685H174.557V200.078ZM180.64 200.078H185.708V195.685H180.64V200.078ZM186.722 200.078H191.791V195.685H186.722V200.078ZM191.791 170.847H186.722V176.423H191.791V170.847ZM191.791 177.437H186.722V182.506H191.791V177.437ZM191.791 183.519H186.722V188.588H191.791V183.519ZM191.791 189.602H186.722V194.671H191.791V189.602ZM167.798 194.671H173.543V189.602H167.798V194.671ZM174.557 194.671H179.626V189.602H174.557V194.671ZM180.64 194.671H185.708V189.602H180.64V194.671ZM185.708 170.847H180.64V176.423H185.708V170.847ZM185.708 177.437H180.64V182.506H185.708V177.437ZM185.708 183.519H180.64V188.588H185.708V183.519ZM167.798 188.588H173.543V183.519H167.798V188.588ZM174.557 188.588H179.626V183.519H174.557V188.588ZM179.626 170.847H174.557V176.423H179.626V170.847ZM179.626 177.437H174.557V182.506H179.626V177.437Z" fill="#D6DAE0"/>
<path opacity="0.665783" fill-rule="evenodd" clip-rule="evenodd" d="M198.698 190.516C198.781 196.629 198.702 203.423 198.459 210.899C195.282 211.032 192.848 211.049 191.158 210.949C190.169 201.102 182.802 189.762 169.06 176.93L198.698 190.516V190.516Z" fill="#27344B"/>
<path d="M186.082 135.623C185.695 135.938 185.497 136.347 185.497 136.833C185.497 137.349 185.837 137.763 186.474 138.07L186.658 137.689C186.152 137.446 185.92 137.162 185.92 136.833C185.92 136.475 186.06 136.186 186.349 135.95L186.082 135.623Z" fill="#352C24"/>
<path fill-rule="evenodd" clip-rule="evenodd" d="M180.149 272.806L176.417 277.259C176.417 277.259 181.016 289.971 180.799 293.007C180.581 296.043 166.447 271.906 166.447 271.906L174.148 265.045L180.149 272.806Z" fill="#00246B"/>
<path fill-rule="evenodd" clip-rule="evenodd" d="M208.557 189.799L208.558 189.778L208.596 189.788L208.609 189.784V189.792L210.782 190.399C211.274 190.657 212.062 191.097 212.338 191.777C212.459 192.076 212.459 192.626 212.338 193.426C212.628 194.093 212.501 194.788 211.954 195.512C212.102 196.239 211.766 196.904 210.946 197.507C210.946 198.11 210.524 198.514 209.68 198.718C209.61 198.735 209.536 198.729 209.469 198.701L208.532 198.306H204.536L199.866 195.074L169.232 177.098C169.138 177.043 169.047 176.982 168.959 176.917C167.61 175.917 167.328 174.012 168.329 172.663L174.021 164.99L174.726 164.09L183.88 170.608L183.392 171.205L181.859 173.284L204.536 190.914L208.557 189.799Z" fill="#FE8B78"/>
<path fill-rule="evenodd" clip-rule="evenodd" d="M174.726 164.09C174.726 164.09 180.775 170.144 181.859 173.284L183.88 170.608L174.726 164.09Z" fill="#DF705E"/>
<path opacity="0.65" fill-rule="evenodd" clip-rule="evenodd" d="M187.032 172.86L178.485 166.76C178.485 166.76 188.748 165.239 191.052 154.373C191.052 154.373 191.685 159.393 191.052 162.258C190.317 165.589 187.032 172.86 187.032 172.86Z" fill="#27344B"/>
<path fill-rule="evenodd" clip-rule="evenodd" d="M204.041 191.123L206.153 187.744L205.669 191.123H204.041Z" fill="#FE8B78"/>
<path fill-rule="evenodd" clip-rule="evenodd" d="M194.742 135.787C194.812 136.062 194.897 137.116 194.48 137.88C193.815 137.789 191.801 136.937 190.946 136.683L194.742 135.787Z" fill="white"/>
</svg>
