<svg xmlns="http://www.w3.org/2000/svg" viewBox="0 0 2000 2000"><defs><style>.cls-1{fill:#dff3fd;}.cls-2{fill:#29abe2;}.cls-3{fill:#0369af;}.cls-4{fill:none;stroke:#99daf3;stroke-miterlimit:10;stroke-width:18px;}</style></defs><title>Untitled-1</title><g id="Layer_2" data-name="Layer 2"><path class="cls-1" d="M1224,1199.86a.58.58,0,0,1,.59.43,323.61,323.61,0,0,0,90.19-224.54C1314.76,796.39,1169.37,651,990,651S665.24,796.39,665.24,975.75c0,150.54,102.41,277.15,241.39,314q-28.43-40.15-59.31-78.56c-9.06-11.22-5.21-24.52,8.76-28.62,13.36-3.92,26-1.19,37.37,6.51,18.3,12.34,33.63,28,48.29,44.32,2,2.19,3.84,4.46,5.88,6.58a10,10,0,0,0,17.08-4.31,26.26,26.26,0,0,0,.62-6.64v-24.91q0-6.66,0-13.32,0-19.12,0-38.24v-66.38q0-35.82,0-71.61c0-8.42,2.12-16,9.28-21.11,8.91-6.4,18.65-7,28.41-2.37,9.28,4.4,13.13,12.44,13.13,22.44q0,53.76,0,107.53,0,41.27,0,82.54v.37c0,1.18,0,2.35,0,3.52.14,5.76,3.25,9,8.55,9.09s8.51-3.26,8.72-8.94c.06-1.41,0-2.83,0-4.24v-2.06c0-24.51-.07-49,0-73.54a26,26,0,0,1,2.72-11.79h0c3.32-6.46,9.51-10.85,17.75-12.34a28,28,0,0,1,9.87,0h0c8.49,1.49,15.67,6.93,18.61,15a30.78,30.78,0,0,1,1.65,10.37c.1,18.77.1,37.55.1,56.32,0,7.13,0,14.27,0,21.4,0,5.57,2.12,8.7,6.37,9.64,6.25,1.38,10.84-2.36,10.85-9q.06-15.35,0-30.7v-18.76c0-2.12,0-4.25.18-6.35,1.18-12.79,11.06-21.7,24-21.67,9.83,0,17.86,5.18,21.66,13.27h0a24.69,24.69,0,0,1,2.25,8.47c.18,2,.18,4,.18,6q0,34.44,0,68.89c0,6.3,3.87,9.81,9.81,9.13,4.74-.53,7.35-3.65,7.38-9.11.06-11.07-.07-22.14.1-33.21a35.1,35.1,0,0,1,1.4-10.07,22.16,22.16,0,0,1,24-15.6c10.62,1.14,18.74,9.43,20,20.6a59.94,59.94,0,0,1,.25,6.7c0,1.42,0,2.84,0,4.27a5.26,5.26,0,0,1,1.15-.13,4.86,4.86,0,0,1,1.36.19,4.23,4.23,0,0,1,1.47-1.07,4.53,4.53,0,0,1,2.28-.72c.21,0,.41-.06.63-.06a4.3,4.3,0,0,1,4.11,2.55A.66.66,0,0,1,1224,1199.86Z"/><path class="cls-2" d="M1219.64,975.75a229,229,0,0,1-72.39,167.34c-3.79-8.09-11.83-13.25-21.66-13.27-12.93,0-22.81,8.88-24,21.67-.19,2.1-.18,4.23-.18,6.35v18.76q-8.42,4.68-17.26,8.66c0-18.77,0-37.55-.1-56.32a30.78,30.78,0,0,0-1.65-10.37c-2.94-8.07-10.12-13.51-18.61-15h0a28,28,0,0,0-9.87,0c-8.24,1.49-14.43,5.88-17.75,12.34h0a25.9,25.9,0,0,0-2.71,11.79c-.11,24.5,0,49,0,73.54q-8.55,1.64-17.31,2.63v-.37l0-82.54q0-53.76,0-107.53c0-10-3.86-18-13.13-22.44-9.77-4.65-19.51-4-28.42,2.37-7.15,5.13-9.28,12.69-9.28,21.11q0,35.81,0,71.61v66.38q0,19.11,0,38.24,0,6.66,0,13.32c-115.23-12.3-205-109.83-205-228.32C760.35,848.92,863.17,746.1,990,746.1S1219.64,848.92,1219.64,975.75Z"/><path class="cls-3" d="M1130,975.7A140,140,0,0,1,1060,1097h0a26.53,26.53,0,0,0-9.36,0c-7.82,1.42-13.7,5.58-16.85,11.71h0a137.91,137.91,0,0,1-19,4.79q0-51,0-102c0-9.49-3.66-17.12-12.46-21.29-9.27-4.41-18.51-3.83-27,2.25-6.78,4.86-8.8,12-8.8,20q0,34,0,68v33.34h0A140,140,0,1,1,1130,975.7Z"/><path class="cls-4" d="M968.33,1115.65v.65q0,14.76,0,29.52v-64.08Q968.33,1098.69,968.33,1115.65Z"/><path class="cls-4" d="M913.74,1285.09l-4.12-6.82q-28.43-38.77-59.3-75.85c-9.06-10.83-5.22-23.67,8.76-27.63,13.36-3.78,26-1.15,37.37,6.29,18.29,11.91,33.63,27,48.28,42.79,2,2.11,3.85,4.3,5.88,6.35,5.57,5.59,15,3.32,17.09-4.16a24.52,24.52,0,0,0,.61-6.41q0-12,0-24.05,0-6.43,0-12.86,0-18.46,0-36.92,0-14.76,0-29.52v-.65q0-17,0-33.91,0-34.59,0-69.13c0-8.13,2.13-15.43,9.28-20.38,8.91-6.18,18.65-6.78,28.42-2.29,9.27,4.25,13.13,12,13.13,21.66q0,51.9,0,103.81l0,79.69v.35c0,1.14,0,2.27,0,3.4.14,5.56,3.24,8.74,8.54,8.78s8.52-3.15,8.73-8.63c.06-1.36,0-2.74,0-4.1v-2c0-23.66-.07-47.34,0-71a24.31,24.31,0,0,1,2.71-11.39c3.32-6.24,9.51-10.48,17.75-11.92a29,29,0,0,1,9.88,0c8.49,1.44,15.67,6.7,18.61,14.49a28.74,28.74,0,0,1,1.65,10c.1,18.12.1,36.25.1,54.37,0,6.88,0,13.78,0,20.66,0,5.38,2.12,8.4,6.37,9.31,6.25,1.33,10.84-2.28,10.86-8.69q0-14.82,0-29.64V1151c0-2,0-4.11.18-6.13,1.18-12.35,11.06-20.95,24-20.92,9.83,0,17.87,5,21.66,12.81a23.23,23.23,0,0,1,2.26,8.18c.17,1.92.17,3.87.17,5.8q0,33.24,0,66.5c0,6.09,3.86,9.47,9.81,8.82,4.73-.51,7.34-3.53,7.38-8.8.06-10.68-.08-21.37.09-32.06a32.48,32.48,0,0,1,1.41-9.72c3.42-10.28,13.09-16.19,24-15.06a22.31,22.31,0,0,1,20,19.89,53.68,53.68,0,0,1,.26,6.47v13.57"/></g></svg>